<svg width="40" height="40" viewBox="0 0 34 40" fill="none" xmlns="http://www.w3.org/2000/svg">
<path d="M25.4365 8.52628e-05L22.1327 7.30418L25.6962 8.76394L29.0001 1.45985L25.4364 0L25.4365 8.52628e-05ZM8.58303 0.0292055L4.9938 1.43073L8.16591 8.78744L11.7551 7.38592L8.58312 0.0292055H8.58303ZM11.3476 0.56989L10.6199 0.85956L13.1941 6.83118L13.7846 8.20154L12.3458 8.75977L8.75688 10.1613L7.31698 10.7233L6.72645 9.35324L4.17073 3.42785L3.17757 3.82328C4.72774 5.7952 5.42398 8.25789 5.12279 10.7038C4.82161 13.1498 3.54595 15.3926 1.55872 16.97V20.0753H9.92541V26.7209H1.55863V27.9355H9.92532V34.5904H1.55863V37.8548C3.06179 39.2853 10.0313 40 17.0011 40C23.9707 40 30.9404 39.2853 32.4435 37.8548V34.5904H24.0767V27.9366H32.4435V26.7207H24.074V20.0667H32.4405V16.9622C30.4532 15.3848 29.1776 13.142 28.8764 10.6961C28.5752 8.25014 29.2715 5.78745 30.8216 3.81553L29.807 3.41108L27.1228 9.34464L26.5069 10.7058L25.0768 10.1197L21.5181 8.66713L20.0879 8.08106L20.7038 6.71998L23.3596 0.847384L22.6535 0.569805C22.0934 1.52918 21.274 2.32858 20.28 2.88515C19.2861 3.44171 18.1538 3.73521 17.0005 3.73521C15.8473 3.73521 14.715 3.44171 13.7211 2.88515C12.7271 2.32858 11.9076 1.52918 11.3476 0.569805V0.56989ZM0 21.5482V25.2404H8.36964V21.5482H0ZM25.6304 21.5482V25.2404H34V21.5482H25.6304ZM0 29.4177V33.1101H8.36964V29.4177H0V29.4177ZM25.6304 29.4177V33.1101H34V29.4177H25.6304V29.4177Z" fill="#5377A9"/>
</svg>
