<svg width="100" height="100" viewBox="0 0 100 100" fill="none" xmlns="http://www.w3.org/2000/svg">
<path d="M36.609 4.01564L34.034 9.16505C35.3621 9.11427 36.6953 9.06974 38.032 9.03107L38.782 7.53107H61.609L62.3453 9.00372C63.6809 9.04025 65.0129 9.08341 66.3406 9.13263L63.7816 4.01544H36.6088L36.609 4.01564ZM50.1949 12.3637C41.258 12.3746 32.3332 12.6695 23.7535 13.2158C23.1207 23.0947 22.1129 32.9399 23.6 41.6971C41.0408 44.118 58.7762 44.2332 76.8742 41.6865C78.2522 35.6342 77.8736 25.1475 76.6711 13.1924C68.0824 12.6274 59.1457 12.3526 50.1949 12.3635V12.3637ZM80.2307 13.4457C81.4846 25.9692 82.0105 36.849 80.009 43.7621L79.6945 44.8481L78.5762 45.0125C59.2793 47.85 40.3705 47.7098 21.8174 45.0129L20.5898 44.8344L20.3465 43.6176C18.4148 33.9516 19.5486 23.5424 20.2168 13.4574C19.2617 13.5266 18.3096 13.5981 17.3648 13.6736C15.6859 25.1127 15.5309 36.5168 17.3551 47.9104C38.8863 50.2713 60.7682 50.2942 83.0197 47.9084C84.6803 36.6135 84.6389 25.2033 83.0164 13.6676C82.0936 13.5895 81.1639 13.516 80.2309 13.4449L80.2307 13.4457ZM50.1887 18.0274C56.5414 18.0225 62.8971 18.5637 69.2461 19.666L70.7031 19.919V21.3979C70.7031 24.4358 71.0318 28.2543 68.2246 31.2123C66.2887 33.2522 63.2139 34.5984 58.2031 35.2328V38.7805H42.1875V35.1766C37.5016 34.5184 34.5016 33.1893 32.5463 31.2342C29.6498 28.3385 29.6875 24.5235 29.6875 21.3985V19.9152L31.1492 19.6656C37.4859 18.5836 43.8357 18.0324 50.1883 18.0277L50.1887 18.0274ZM50.191 21.5418C44.5348 21.5461 38.8799 22.0192 33.2266 22.9082C33.2783 25.3067 33.5459 27.2629 35.0318 28.7488C36.1869 29.9039 38.3428 30.9785 42.1875 31.5969V25.8899H58.2031V31.6535C62.3764 31.0451 64.582 29.9436 65.6746 28.7922C67.0482 27.3449 67.1777 25.3738 67.1844 22.9086C61.5203 22.0043 55.8551 21.5375 50.1908 21.5418H50.191ZM45.7031 29.4063V35.2656H54.6875V29.4063H45.7031ZM86.6551 47.457C86.5568 48.1651 86.4516 48.8731 86.3406 49.5801C86.3824 50.0395 86.4227 50.4992 86.4637 50.959L92.1875 56.6822V52.3385L86.6551 47.4567V47.457ZM13.7088 47.4805L8.20312 52.3385V56.6822L13.9293 50.9561C13.9693 50.5016 14.0086 50.0469 14.0496 49.5924C13.9289 48.8883 13.8148 48.1842 13.7088 47.4805ZM82.9732 51.4643C80.9635 51.6772 78.9568 51.8697 76.9529 52.0438V66.5154H80.0779V79.4061H76.9529V95.1512C78.9682 95.0276 80.9822 94.8948 82.9936 94.7446C84.8383 80.2895 84.2588 65.8973 82.9732 51.4641V51.4643ZM17.4311 51.4701C16.1572 66.0332 15.543 80.4883 17.3945 94.7461C19.4109 94.9004 21.4254 95.0399 23.4375 95.1651V79.4063H20.3125V66.5156H23.4375V52.0578C21.4324 51.8817 19.4303 51.6861 17.4313 51.4699L17.4311 51.4701ZM73.4373 52.3295C71.4814 52.4779 69.5283 52.6076 67.5779 52.7186V66.5154H73.4373V52.3295ZM26.9529 52.3461V66.5154H32.8123V52.7361C30.8562 52.6252 28.9033 52.4945 26.9529 52.3461ZM64.0623 52.8979C54.7557 53.3223 45.5107 53.3256 36.3279 52.9131V56.6854C41.0057 55.6766 45.6639 55.1908 50.2959 55.2029C54.9127 55.2147 59.5039 55.7213 64.0623 56.6924V52.8975V52.8979ZM13.4863 56.3711L8.20312 61.6543V72.7656H12.707C12.7805 67.2994 13.0742 61.833 13.4863 56.3711ZM86.9137 56.3803C87.3277 61.824 87.6187 67.2846 87.6865 72.7654H92.1875V61.6541L86.9137 56.3801V56.3803ZM50.2887 58.7143C45.6637 58.702 41.0139 59.2176 36.3281 60.2869V66.5154H39.4531V70.1176C42.7799 71.1617 45.6504 71.7764 48.4375 71.9586V71.3981H51.9531V71.9582C54.7402 71.7762 57.6107 71.1613 60.9375 70.1174V66.5156H64.0625V60.2918C59.4883 59.2631 54.901 58.7262 50.2885 58.7141L50.2887 58.7143ZM23.8281 70.0309V75.8903H28.125V71.3981H31.6406V75.8903H35.9375V70.0309H23.8281ZM64.4531 70.0309V75.8903H68.75V71.3981H72.2656V75.8903H76.5625V70.0309H64.4531ZM39.4531 73.7891V79.4063H36.3281V82.5033C45.8063 84.6254 55.0221 84.5862 64.0625 82.5121V79.4063H60.9375V73.7891C57.7477 74.7162 54.8275 75.2578 51.9531 75.4153V77.6483H48.4375V75.4151C45.5631 75.2576 42.643 74.7158 39.4531 73.7889V73.7891ZM8.20312 76.2813V79.0156H12.7227C12.7051 78.1041 12.6947 77.1926 12.6908 76.2813H8.20312ZM87.6977 76.2813C87.6924 77.192 87.6814 78.1035 87.6625 79.0156H92.1875V76.2813H87.6977ZM26.9531 79.4063V83.2731C28.1518 84.6821 29.1449 85.1813 29.8699 85.1957C30.5992 85.2104 31.5686 84.7813 32.8125 83.2836V79.4063H31.6406V80.7735H28.125V79.4063H26.9531ZM67.5781 79.4063V83.2731C68.7768 84.6821 69.7699 85.1813 70.4949 85.1957C71.2242 85.2104 72.1936 84.7813 73.4375 83.2836V79.4063H72.2656V80.7735H68.75V79.4063H67.5781ZM8.20312 82.5313V89.3973C9.29609 90.4735 9.89785 91.0086 10.5168 91.2149C10.9961 91.3746 12.0232 91.4395 13.4553 91.4721C13.1537 88.4936 12.9502 85.5131 12.8295 82.5311H8.20312V82.5313ZM87.5527 82.5313C87.4301 85.5047 87.2258 88.485 86.9258 91.4727C88.3629 91.4399 89.3936 91.375 89.8738 91.2149C90.493 91.0086 91.0945 90.4736 92.1875 89.3973V82.5313H87.5527ZM36.3281 86.102V95.7696C45.6152 96.0645 54.8588 96.052 64.0625 95.7551V86.1133C55.0164 88.0723 45.7539 88.1026 36.3281 86.1022V86.102ZM26.9531 87.8838V95.3678C28.9082 95.4733 30.8613 95.5647 32.8125 95.6428V87.8932C31.8633 88.4373 30.8574 88.7317 29.7988 88.7104C28.7848 88.6901 27.8387 88.3932 26.9531 87.8838ZM67.5781 87.8838V95.6287C69.5332 95.55 71.4863 95.4572 73.4375 95.353V87.8932C72.4883 88.4373 71.4824 88.7317 70.4238 88.7104C69.4098 88.6901 68.4637 88.3932 67.5781 87.8838Z" fill="currentColor"/>
</svg>
