<svg width="135" height="135" viewBox="0 0 135 135" fill="none" xmlns="http://www.w3.org/2000/svg">
<path d="M67.4999 15.849L18.8459 55.998H116.181L67.4999 15.849ZM67.4189 27.81C76.2749 35.262 85.131 42.687 93.96 50.139C76.113 50.166 58.2659 50.193 40.4189 50.22C49.4099 42.741 58.4009 35.289 67.4189 27.81Z" fill="#748EA5" stroke="#262822" stroke-width="4" stroke-miterlimit="10"/>
<path d="M27.486 56.241V119.178H108.81V56.241H27.486ZM97.146 110.106H39.177V65.286H97.119C97.119 80.217 97.146 95.175 97.146 110.106Z" fill="#748EA5" stroke="#262822" stroke-width="4" stroke-miterlimit="10"/>
<path d="M83.457 37.989L61.5118 50.895L63.7361 52.002L83.2672 40.527L116.389 57.726L97.4 68.904L98.3223 69.363V70.767L113.188 62.019L116.307 63.639L98.3223 74.223V76.653L112.916 68.067L116.334 69.849L98.3494 80.433V82.863L112.943 74.277L116.361 76.059L98.3766 86.643V89.073L120.946 75.789L115.331 72.873L120.946 69.579L115.331 66.663L120.946 63.369L115.629 60.615L121 57.456L83.457 37.989ZM90.4828 47.25C85.7356 49.437 79.4152 49.815 74.9665 48.168L66.2589 53.298L94.8773 67.635L103.124 62.775C99.8685 60.426 100.14 56.916 103.775 54.162L90.4828 47.25ZM60.9964 54.891L45.046 64.422L75.6446 80.568L75.943 80.379C76.5127 80.055 77.2993 79.569 78.2488 79.002C80.1476 77.868 82.6704 76.383 85.166 74.898C88.7738 72.765 90.6455 71.658 92.3545 70.605L60.9964 54.891ZM37.7761 64.881L13.9863 78.867L19.303 81.621L13.932 84.78L19.5472 87.696L13.932 90.99L19.5472 93.906L13.932 97.2L51.4207 116.667L74.0442 103.356V100.926L51.6106 114.129L18.4892 96.93L21.7173 95.04L51.4207 110.457L74.0442 97.146V94.716L51.6106 107.919L18.4892 90.72L21.7173 88.83L51.4207 104.247L74.0442 90.936V88.506L51.6106 101.709L18.4892 84.537L21.4732 82.782L51.475 98.334L74.0442 85.05V83.997L72.7963 83.349L51.6649 95.769L18.5706 78.597L39.9462 66.015L37.7761 64.881ZM42.3876 67.311L31.8083 73.548C35.0635 75.897 34.7922 79.407 31.1573 82.161L44.4764 89.073C49.2235 86.886 55.5439 86.508 59.9927 88.155L70.355 82.053L42.3876 67.311ZM94.2534 73.98C92.4359 75.06 90.8354 76.005 87.3904 78.057C84.8947 79.542 82.372 81.027 80.4731 82.161C79.5237 82.728 78.7099 83.187 78.1674 83.538C78.1403 83.538 78.1403 83.565 78.1131 83.565V101.331L94.2534 91.395V73.98Z" fill="#4A8D65" stroke="#262822" stroke-width="1.5" stroke-miterlimit="10"/>
</svg>
