<svg width="135" height="135" viewBox="0 0 135 135" fill="none" xmlns="http://www.w3.org/2000/svg">
<path d="M67.5 15.849L18.846 55.998H116.181L67.5 15.849ZM67.419 27.81C76.275 35.262 85.131 42.687 93.96 50.139C76.113 50.166 58.266 50.193 40.419 50.22C49.41 42.741 58.401 35.289 67.419 27.81Z" fill="#748EA5" stroke="#262822" stroke-width="4" stroke-miterlimit="10"/>
<path d="M27.486 56.241V119.178H108.81V56.241H27.486ZM97.146 110.106H39.177V65.286H97.119V110.106H97.146Z" fill="#748EA5" stroke="#262822" stroke-width="4" stroke-miterlimit="10"/>
<path d="M52.407 98.172C50.625 94.014 48.843 89.856 47.061 85.671C63.45 85.617 79.839 85.563 96.228 85.509C96.228 67.527 96.228 49.491 96.228 31.482C73.17 30.78 50.166 30.024 27.108 29.349C25.596 25.758 24.084 22.167 22.545 18.63H106.218V94.5C90.45 94.797 74.763 95.013 59.022 95.31C58.968 98.091 58.887 100.926 58.833 103.707C56.727 101.817 54.567 100.008 52.407 98.172Z" fill="#BD4B4B" stroke="#262822" stroke-width="4" stroke-miterlimit="10"/>
<path d="M58.779 111.456C55.107 108.27 51.408 105.084 47.736 101.925C47.682 108.81 47.682 115.695 47.601 122.58H58.725V111.483H58.779V111.456Z" fill="#BD4B4B" stroke="#262822" stroke-width="4" stroke-miterlimit="10"/>
</svg>
