<svg width="120" height="120" viewBox="0 0 120 120" fill="none" xmlns="http://www.w3.org/2000/svg">
<path d="M77.9694 0L53.3692 19.6905L55.8627 21.3932L77.749 3.87444L114.872 30.0961L93.5788 47.1394L94.616 47.8473V50.0077L111.294 36.6578L114.794 39.1305L94.6158 55.2816V58.98L110.967 45.8916L114.794 48.5953L94.6158 64.7464V68.4448L110.967 55.3564L114.794 58.0601L94.6158 74.2112V77.9096L119.923 57.6525L113.642 53.2162L119.923 48.1883L113.642 43.7514L119.923 38.7236L113.968 34.5172L120 29.6888L77.9691 0H77.9694ZM85.8291 14.1147C80.5067 17.4449 73.4173 18.0084 68.4258 15.4974L58.6679 23.3078L90.7733 45.2244L100.028 37.8169C96.3827 34.2279 96.6863 28.8729 100.773 24.6707L85.8288 14.1147H85.8291ZM52.7909 25.7699L34.9073 40.3117L69.2156 64.9401L69.5521 64.672C70.1846 64.164 71.0776 63.4447 72.1432 62.5857C74.2734 60.8685 77.0925 58.5917 79.9035 56.3202C83.9519 53.0487 86.0381 51.3608 87.978 49.7916L52.7909 25.7699ZM82.0031 26.139C82.0034 26.139 82.0036 26.139 82.0039 26.139C82.8129 26.1451 83.5548 26.3614 84.1088 26.7526C84.4312 26.9802 84.6812 27.2611 84.8447 27.579C85.0081 27.897 85.0817 28.2458 85.0613 28.6056C85.0408 28.9655 84.9268 29.3292 84.7255 29.6761C84.5244 30.023 84.24 30.3462 83.8887 30.6273C83.5374 30.9085 83.1262 31.142 82.6783 31.3146C82.2305 31.4872 81.7549 31.5955 81.2786 31.6333C80.8023 31.6711 80.3347 31.6376 79.9026 31.5348C79.4704 31.4321 79.082 31.262 78.7597 31.0343C78.1088 30.5745 77.7664 29.9081 77.8076 29.1815C77.8489 28.455 78.2706 27.7279 78.9798 27.1602C79.3826 26.8377 79.8637 26.5784 80.3872 26.4015C80.9107 26.2247 81.4631 26.1349 82.0031 26.139ZM26.7438 41.0029L0.0771627 62.3469L6.03184 66.5532L0 71.3817L6.28129 75.8183L0 80.8464L6.28129 85.2831L0 90.3112L42.0309 120L67.407 99.6873V95.9899L42.2512 116.125L5.12866 89.9033L8.73506 87.0166L42.0309 110.535L67.407 90.2229V86.5254L42.2512 106.661L5.12866 80.4388L8.73506 77.5522L42.0309 101.07L67.407 80.7584V77.061L42.2512 97.1963L5.12866 70.9744L8.48586 68.2865L42.1085 92.036L67.407 71.7858V70.1926L66.0206 69.1976L42.3279 88.1612L5.20633 61.9396L29.1799 42.7507L26.7435 41.002L26.7438 41.0029ZM31.92 44.7193L20.0496 54.22C23.6952 57.8083 23.3917 63.1633 19.3053 67.3662L34.2491 77.9222C39.5713 74.5917 46.6601 74.0285 51.6516 76.5392L63.2804 67.2312L31.9195 44.719L31.92 44.7193ZM90.0619 54.8747C88.0268 56.5205 86.2321 57.9733 82.3803 61.0859C79.5691 63.3583 76.7492 65.6351 74.616 67.3555C73.5491 68.2152 72.654 68.936 72.0157 69.4477C71.993 69.4667 71.9836 69.473 71.9613 69.491V96.5985L90.0622 81.4276V54.8747H90.0619ZM39.213 60.3893C40.0222 60.3956 40.7641 60.6121 41.3179 61.0035C41.9688 61.4633 42.3113 62.1298 42.27 62.8563C42.2287 63.5829 41.8071 64.31 41.0978 64.8777C40.3886 65.4453 39.4499 65.807 38.4882 65.8833C37.5265 65.9596 36.6206 65.7443 35.9697 65.2846C35.3188 64.8249 34.9763 64.1584 35.0176 63.4319C35.0588 62.7053 35.4805 61.9782 36.1898 61.4105C36.5926 61.0881 37.0737 60.8288 37.5972 60.652C38.1207 60.4753 38.673 60.3855 39.213 60.3896V60.3893Z" fill="#5377A9"/>
</svg>
