<svg width="100" height="100" viewBox="0 0 100 104" fill="none" xmlns="http://www.w3.org/2000/svg">
<g filter="url(#filter0_d)">
<path d="M40.0332 4.49219L36.5113 5.43828L38.7878 13.9281C33.7416 15.5055 28.9597 18.1572 24.8046 21.8871L18.6582 15.741L16.0765 18.323L22.2046 24.4508C18.4025 28.5768 15.6785 33.3434 14.038 38.385L5.77378 36.1695L4.82788 39.6975L13.0798 41.907C11.8968 47.2391 11.8773 52.7773 13.0125 58.118L4.82808 60.3086L5.77397 63.8367L13.9404 61.6453C15.2476 65.7908 17.283 69.7557 20.0439 73.3398L14.1904 83.6305L10.9072 89.4104L16.6806 86.1209L26.9652 80.2674C30.5609 83.0439 34.5402 85.0897 38.7023 86.4016L36.5109 94.5742L40.033 95.5137L42.224 87.3291C47.5648 88.4635 53.1025 88.4397 58.4349 87.2559L60.6443 95.5137L64.1722 94.5742L61.9566 86.2977C66.998 84.657 71.7646 81.9393 75.8906 78.1375L82.0185 84.265L84.6005 81.6834L78.4541 75.5369C82.1826 71.3834 84.8296 66.6037 86.4072 61.5598L94.9091 63.8365L95.8492 60.3086L87.3287 58.0262C88.438 52.7441 88.4177 47.2723 87.2615 41.9982L95.8494 39.6975L94.9093 36.1695L86.3101 38.4766C84.9957 34.4012 82.9742 30.5098 80.2492 26.9836L86.1027 16.6992L89.3921 10.9252L83.6123 14.215L73.3279 20.0686C69.8127 17.3586 65.9306 15.3424 61.8714 14.0322L64.1728 5.43848L60.6445 4.49219L58.3437 13.0801C53.0703 11.9229 47.5976 11.8984 42.3156 13.0066L40.0332 4.49219ZM79.4003 21.0938L58.2519 58.2643L58.1054 58.3496L50.1281 50.3662L21.0812 79.4131L20.6542 79.6572L41.9677 42.2061L50.1279 50.3662L79.4007 21.0938H79.4003ZM50.1648 23.1629C54.4339 23.1629 58.7033 24.1719 62.5855 26.1844L39.8072 39.1418L39.3736 39.3918L39.1236 39.8254L26.1841 62.5609C20.922 52.3969 22.5482 39.5916 31.0728 31.0668C36.3443 25.7957 43.2564 23.1629 50.1646 23.1629H50.1648ZM74.1336 37.732C79.4058 47.8988 77.78 60.7148 69.2504 69.2443C60.723 77.7721 47.9099 79.4016 37.7441 74.1336L60.4859 61.1879L60.9253 60.9438L61.1695 60.5043L74.1334 37.7324L74.1336 37.732Z" fill="currentColor"/>
</g>
<defs>
<filter id="filter0_d" x="-4" y="0" width="108" height="108" filterUnits="userSpaceOnUse" color-interpolation-filters="sRGB">
<feFlood flood-opacity="0" result="BackgroundImageFix"/>
<feColorMatrix in="SourceAlpha" type="matrix" values="0 0 0 0 0 0 0 0 0 0 0 0 0 0 0 0 0 0 127 0"/>
<feOffset dy="4"/>
<feGaussianBlur stdDeviation="2"/>
<feColorMatrix type="matrix" values="0 0 0 0 0 0 0 0 0 0 0 0 0 0 0 0 0 0 0.25 0"/>
<feBlend mode="normal" in2="BackgroundImageFix" result="effect1_dropShadow"/>
<feBlend mode="normal" in="SourceGraphic" in2="effect1_dropShadow" result="shape"/>
</filter>
</defs>
</svg>
