<svg width="130" height="130" viewBox="0 0 130 130" fill="none" xmlns="http://www.w3.org/2000/svg">
<path d="M50.466 94.5359C48.75 90.5319 47.034 86.5279 45.318 82.4979C61.1 82.4459 76.882 82.3939 92.664 82.3419C92.664 65.0259 92.664 47.6579 92.664 30.3159C70.46 29.6399 48.308 28.9119 26.104 28.2619C24.648 24.8039 23.192 21.3459 21.71 17.9399H102.284V90.9999C87.1 91.2859 71.994 91.4939 56.836 91.7799C56.784 94.4579 56.706 97.1879 56.654 99.8659C54.626 98.0459 52.546 96.3039 50.466 94.5359Z" fill="#BD4B4B" stroke="#262822" stroke-width="4" stroke-miterlimit="10"/>
<path d="M56.602 107.328C53.066 104.26 49.504 101.192 45.968 98.15C45.916 104.78 45.916 111.41 45.838 118.04H56.55V107.354H56.602V107.328Z" fill="#BD4B4B" stroke="#262822" stroke-width="4" stroke-miterlimit="10"/>
</svg>
