<svg width="40" height="40" viewBox="0 0 40 44" fill="none" xmlns="http://www.w3.org/2000/svg">
<path d="M15 0C14.337 0 13.7011 0.289731 13.2322 0.805456C12.7634 1.32118 12.5 2.02065 12.5 2.75V13.75H2.5C1.83696 13.75 1.20107 14.0397 0.732233 14.5555C0.263392 15.0712 0 15.7707 0 16.5V27.5C0 28.2293 0.263392 28.9288 0.732233 29.4445C1.20107 29.9603 1.83696 30.25 2.5 30.25H12.5V41.25C12.5 41.9793 12.7634 42.6788 13.2322 43.1945C13.7011 43.7103 14.337 44 15 44H25C25.663 44 26.2989 43.7103 26.7678 43.1945C27.2366 42.6788 27.5 41.9793 27.5 41.25V30.25H37.5C38.163 30.25 38.7989 29.9603 39.2678 29.4445C39.7366 28.9288 40 28.2293 40 27.5V16.5C40 15.7707 39.7366 15.0712 39.2678 14.5555C38.7989 14.0397 38.163 13.75 37.5 13.75H27.5V2.75C27.5 2.02065 27.2366 1.32118 26.7678 0.805456C26.2989 0.289731 25.663 0 25 0H15Z" fill="#BD4B4B"/>
</svg>
