<svg width="40" height="40" viewBox="0 0 40 40" fill="none" xmlns="http://www.w3.org/2000/svg">
<path d="M36.0244 0L36.0222 38.4352C36.6035 39.5675 37.205 40.0029 37.7094 40C38.2098 39.9972 38.8049 39.5566 39.3749 38.4582L37.8182 18.827L37.8 18.5879L37.9246 18.3973C39.7135 15.6804 40.3386 10.9865 39.8283 7.0163C39.5732 5.0311 39.0391 3.2343 38.2911 1.9641C37.6639 0.898899 36.9157 0.2194 36.0246 0H36.0244ZM4.56445 0.000400162L4.5631 6.7131L3.50197 6.7115V0.000799942H2.29342L2.29359 6.7118H1.23094V0.000799942H1.01675e-08V10.3236C-8.44744e-05 11.4653 0.526339 12.0984 1.35513 12.4898L1.69814 12.652L1.69054 13.089C1.52157 21.546 1.35454 30.0029 1.18684 38.4598C1.76471 39.579 2.3583 40.0028 2.85254 40C3.34677 39.9972 3.93985 39.5623 4.51038 38.4568C4.3148 30.0021 4.11922 21.5472 3.92397 13.0924L3.91383 12.6524L4.25794 12.4918C5.13016 12.0812 5.69747 11.3844 5.69747 10.3242V0.000400162H4.56453H4.56445ZM20.0071 3.9C16.3997 3.9 12.9399 5.59624 10.3891 8.61558C7.83818 11.6349 6.40511 15.73 6.40511 20C6.40511 24.27 7.83818 28.3651 10.3891 31.3844C12.9399 34.4037 16.3997 36.1 20.0071 36.1C23.6146 36.1 27.0743 34.4037 29.6252 31.3844C32.1761 28.3651 33.6091 24.27 33.6091 20C33.6091 15.73 32.1761 11.6349 29.6252 8.61558C27.0743 5.59624 23.6146 3.9 20.0071 3.9Z" fill="#FFA75F"/>
</svg>
