<svg width="100" height="100" viewBox="0 0 120 120" fill="none" xmlns="http://www.w3.org/2000/svg">
<path d="M56.2727 0L52.3956 8.81274C50.3924 8.93397 48.3955 9.18605 46.4177 9.56595L40.487 1.94159L34.0946 4.10534L34.0628 13.8057C31.3549 15.1914 28.7599 16.8667 26.3086 18.822L17.2744 14.7724L12.6492 19.6703L17.2742 28.4037C15.7834 30.5202 14.4912 32.7332 13.3976 35.0212L3.47867 35.2905L1.46473 41.7017L9.47312 47.5746C9.08974 49.9534 8.90251 52.3571 8.89181 54.7628L0 59.2483L0.931315 65.9054L10.691 67.8074C11.2728 69.8317 11.992 71.8209 12.8563 73.7671L6.42444 81.7163L10.0144 87.4062L20.0128 85.0763C20.642 85.8105 21.2959 86.5363 21.9789 87.2396C23.4163 88.7194 24.9249 90.0815 26.4928 91.3289L24.5504 101.299L30.3936 104.659L38.0275 98.0416C40.2198 98.9196 42.4688 99.6215 44.7543 100.15L47.2461 109.889L53.9724 110.436L58.0164 101.251C60.8108 101.084 63.5961 100.668 66.335 99.9986L72.7595 107.409L79.0242 104.912L78.8408 101.156L64.2174 90.1165C59.9603 91.1879 55.5457 91.4748 51.2098 90.9878C43.1209 90.0799 35.3474 86.4433 29.247 80.1625C15.3033 65.8049 15.7019 42.9664 30.1228 29.0851C37.1076 22.3613 46.0922 18.9503 55.0869 18.8537C64.6624 18.7507 74.2466 22.4031 81.4363 29.8061C93.1376 41.8553 94.7325 59.9812 86.4194 73.7037L94.5633 79.8536C95.5815 78.261 96.4978 76.6202 97.3018 74.94L107.149 74.6704L109.163 68.2593L101.21 62.4264C101.596 60.0281 101.787 57.5991 101.791 55.1749L110.628 50.7051L109.696 44.048L99.9452 42.146C99.131 39.3581 98.0489 36.627 96.6973 33.9989L102.508 25.9866L98.6231 20.4943L89.0552 23.2601C88.935 23.1333 88.8183 23.0047 88.6965 22.8797C87.1686 21.306 85.5556 19.8643 83.8726 18.5522L85.7036 9.1371L79.8597 5.7771L72.5998 12.07C70.2496 11.1284 67.8357 10.3955 65.3874 9.851L63.0074 0.546771L56.2727 0ZM41.4583 38.9282C38.8233 38.9582 36.2115 39.6023 33.8162 40.7745L45.3354 49.4766C48.8191 52.108 49.8073 57.1089 47.1338 60.6193C44.4596 64.1317 39.3246 64.6597 35.7904 61.9907L24.2794 53.2967C23.1007 59.5843 25.3327 66.2465 30.7991 70.3754C35.7015 74.0773 41.9932 74.7704 47.413 72.8323L48.6306 72.3961L49.6572 73.1729L84.095 99.1836L85.1216 99.9601L85.0339 101.244C84.6169 106.963 86.9674 112.811 91.8721 116.515C97.3387 120.644 104.391 120.986 110.157 118.164L98.6465 109.47C95.1123 106.801 94.2442 101.734 96.9194 98.2244C99.5941 94.7146 104.698 94.3177 108.183 96.9483L119.694 105.643C120.87 99.3573 118.647 92.6918 113.182 88.5639C108.263 84.8466 102.02 84.1101 96.6326 86.0195L95.4226 86.4476L94.396 85.6708L59.9582 59.6606L58.9316 58.8838L59.0193 57.6082C59.4141 51.9308 57.0196 46.1468 52.1014 42.4313C48.906 40.018 45.167 38.8864 41.4585 38.9285L41.4583 38.9282ZM52.5553 61.816L94.3002 93.3502L91.4263 97.1304L49.6735 65.5884L52.5553 61.816Z" fill="#5377A9"/>
</svg>
